<svg width="40" height="40" viewBox="0 0 40 40" fill="none" xmlns="http://www.w3.org/2000/svg">
<path d="M20 2.5C10.3359 2.5 2.5 10.3359 2.5 20C2.5 29.6641 10.3359 37.5 20 37.5C29.6641 37.5 37.5 29.6641 37.5 20C37.5 10.3359 29.6641 2.5 20 2.5ZM20 34.5312C11.9766 34.5312 5.46875 28.0234 5.46875 20C5.46875 11.9766 11.9766 5.46875 20 5.46875C28.0234 5.46875 34.5312 11.9766 34.5312 20C34.5312 28.0234 28.0234 34.5312 20 34.5312Z" fill="#7E7575"/>
<path d="M28.1016 19.4961L16.5352 11.0976C16.4424 11.0296 16.3326 10.9887 16.2179 10.9795C16.1033 10.9702 15.9883 10.993 15.8858 11.0453C15.7834 11.0975 15.6974 11.1772 15.6376 11.2754C15.5777 11.3736 15.5463 11.4865 15.5469 11.6016V28.3984C15.5469 28.9101 16.125 29.1992 16.5352 28.9023L28.1016 20.5039C28.1814 20.4464 28.2465 20.3707 28.2913 20.283C28.3362 20.1954 28.3596 20.0984 28.3596 20C28.3596 19.9016 28.3362 19.8045 28.2913 19.7169C28.2465 19.6293 28.1814 19.5536 28.1016 19.4961V19.4961ZM18.0391 24.7305V15.2695L24.5508 20L18.0391 24.7305V24.7305Z" fill="#4E4E4E"/>
</svg>
